<?xml version="1.0" standalone="no"?><!DOCTYPE svg PUBLIC "-//W3C//DTD SVG 1.1//EN" "http://www.w3.org/Graphics/SVG/1.1/DTD/svg11.dtd"><svg t="1558092331788" class="icon" style="" viewBox="0 0 1024 1024" version="1.1" xmlns="http://www.w3.org/2000/svg" p-id="2995" xmlns:xlink="http://www.w3.org/1999/xlink" width="200" height="200"><defs><style type="text/css"></style></defs><path d="M992.08768 332.8L544.08768 51.2c-19.2-12.8-44.8-12.8-64 0l-448 281.6C-25.51232 364.8 0.08768 448 64.08768 448h896c64 0 89.6-83.2 32-115.2z" fill="#707070" p-id="2996"></path><path d="M128.08768 441.6v486.4c0 32 25.6 51.2 51.2 51.2H832.08768c32 0 51.2-25.6 51.2-51.2V441.6H128.08768z m499.2 492.8H390.48768V704c0-64 51.2-115.2 115.2-115.2s121.6 51.2 121.6 115.2v230.4z" fill="#707070" p-id="2997"></path></svg>